<?xml version="1.0" encoding="UTF-8" standalone="no"?>
<!DOCTYPE svg PUBLIC "-//W3C//DTD SVG 1.1//EN"
 "http://www.w3.org/Graphics/SVG/1.1/DTD/svg11.dtd">
<!-- Generated by graphviz version 2.42.3 (20191010.1750)
 -->
<!-- Title: snakemake_dag Pages: 1 -->
<svg width="217pt" height="692pt"
 viewBox="0.00 0.00 217.48 692.00" xmlns="http://www.w3.org/2000/svg" xmlns:xlink="http://www.w3.org/1999/xlink">
<g id="graph0" class="graph" transform="scale(1 1) rotate(0) translate(4 688)">
<title>snakemake_dag</title>
<polygon fill="white" stroke="transparent" points="-4,4 -4,-688 213.48,-688 213.48,4 -4,4"/>
<!-- 0 -->
<g id="node1" class="node">
<title>0</title>
<path fill="none" stroke="#70d856" stroke-width="2" stroke-dasharray="5,2" d="M162,-36C162,-36 132,-36 132,-36 126,-36 120,-30 120,-24 120,-24 120,-12 120,-12 120,-6 126,0 132,0 132,0 162,0 162,0 168,0 174,-6 174,-12 174,-12 174,-24 174,-24 174,-30 168,-36 162,-36"/>
<text text-anchor="middle" x="147" y="-15.5" font-family="sans" font-size="10.00">all</text>
</g>
<!-- 1 -->
<g id="node2" class="node">
<title>1</title>
<path fill="none" stroke="#56d86b" stroke-width="2" stroke-dasharray="5,2" d="M163,-180C163,-180 77,-180 77,-180 71,-180 65,-174 65,-168 65,-168 65,-156 65,-156 65,-150 71,-144 77,-144 77,-144 163,-144 163,-144 169,-144 175,-150 175,-156 175,-156 175,-168 175,-168 175,-174 169,-180 163,-180"/>
<text text-anchor="middle" x="120" y="-159.5" font-family="sans" font-size="10.00">update_vcf_header</text>
</g>
<!-- 1&#45;&gt;0 -->
<g id="edge1" class="edge">
<title>1&#45;&gt;0</title>
<path fill="none" stroke="grey" stroke-width="2" d="M123.26,-143.87C127.86,-119.67 136.31,-75.21 141.79,-46.39"/>
<polygon fill="grey" stroke="grey" stroke-width="2" points="145.3,-46.67 143.73,-36.19 138.43,-45.36 145.3,-46.67"/>
</g>
<!-- 9 -->
<g id="node10" class="node">
<title>9</title>
<path fill="none" stroke="#56d89a" stroke-width="2" stroke-dasharray="5,2" d="M190,-108C190,-108 160,-108 160,-108 154,-108 148,-102 148,-96 148,-96 148,-84 148,-84 148,-78 154,-72 160,-72 160,-72 190,-72 190,-72 196,-72 202,-78 202,-84 202,-84 202,-96 202,-96 202,-102 196,-108 190,-108"/>
<text text-anchor="middle" x="175" y="-87.5" font-family="sans" font-size="10.00">report</text>
</g>
<!-- 1&#45;&gt;9 -->
<g id="edge12" class="edge">
<title>1&#45;&gt;9</title>
<path fill="none" stroke="grey" stroke-width="2" d="M133.6,-143.7C140.12,-135.39 148.07,-125.28 155.25,-116.14"/>
<polygon fill="grey" stroke="grey" stroke-width="2" points="158.13,-118.13 161.56,-108.1 152.63,-113.81 158.13,-118.13"/>
</g>
<!-- 2 -->
<g id="node3" class="node">
<title>2</title>
<path fill="none" stroke="#d88556" stroke-width="2" stroke-dasharray="5,2" d="M133.5,-252C133.5,-252 86.5,-252 86.5,-252 80.5,-252 74.5,-246 74.5,-240 74.5,-240 74.5,-228 74.5,-228 74.5,-222 80.5,-216 86.5,-216 86.5,-216 133.5,-216 133.5,-216 139.5,-216 145.5,-222 145.5,-228 145.5,-228 145.5,-240 145.5,-240 145.5,-246 139.5,-252 133.5,-252"/>
<text text-anchor="middle" x="110" y="-231.5" font-family="sans" font-size="10.00">update_vcf</text>
</g>
<!-- 2&#45;&gt;1 -->
<g id="edge3" class="edge">
<title>2&#45;&gt;1</title>
<path fill="none" stroke="grey" stroke-width="2" d="M112.47,-215.7C113.57,-207.98 114.9,-198.71 116.13,-190.11"/>
<polygon fill="grey" stroke="grey" stroke-width="2" points="119.61,-190.5 117.56,-180.1 112.68,-189.51 119.61,-190.5"/>
</g>
<!-- 3 -->
<g id="node4" class="node">
<title>3</title>
<path fill="none" stroke="#5682d8" stroke-width="2" stroke-dasharray="5,2" d="M127.5,-324C127.5,-324 80.5,-324 80.5,-324 74.5,-324 68.5,-318 68.5,-312 68.5,-312 68.5,-300 68.5,-300 68.5,-294 74.5,-288 80.5,-288 80.5,-288 127.5,-288 127.5,-288 133.5,-288 139.5,-294 139.5,-300 139.5,-300 139.5,-312 139.5,-312 139.5,-318 133.5,-324 127.5,-324"/>
<text text-anchor="middle" x="104" y="-303.5" font-family="sans" font-size="10.00">verify_vars</text>
</g>
<!-- 3&#45;&gt;2 -->
<g id="edge4" class="edge">
<title>3&#45;&gt;2</title>
<path fill="none" stroke="grey" stroke-width="2" d="M105.48,-287.7C106.14,-279.98 106.94,-270.71 107.68,-262.11"/>
<polygon fill="grey" stroke="grey" stroke-width="2" points="111.17,-262.37 108.53,-252.1 104.19,-261.77 111.17,-262.37"/>
</g>
<!-- 4 -->
<g id="node5" class="node">
<title>4</title>
<path fill="none" stroke="#ced856" stroke-width="2" stroke-dasharray="5,2" d="M150.5,-396C150.5,-396 57.5,-396 57.5,-396 51.5,-396 45.5,-390 45.5,-384 45.5,-384 45.5,-372 45.5,-372 45.5,-366 51.5,-360 57.5,-360 57.5,-360 150.5,-360 150.5,-360 156.5,-360 162.5,-366 162.5,-372 162.5,-372 162.5,-384 162.5,-384 162.5,-390 156.5,-396 150.5,-396"/>
<text text-anchor="middle" x="104" y="-375.5" font-family="sans" font-size="10.00">update_ensembl_ids</text>
</g>
<!-- 4&#45;&gt;3 -->
<g id="edge5" class="edge">
<title>4&#45;&gt;3</title>
<path fill="none" stroke="grey" stroke-width="2" d="M104,-359.7C104,-351.98 104,-342.71 104,-334.11"/>
<polygon fill="grey" stroke="grey" stroke-width="2" points="107.5,-334.1 104,-324.1 100.5,-334.1 107.5,-334.1"/>
</g>
<!-- 5 -->
<g id="node6" class="node">
<title>5</title>
<path fill="none" stroke="#d8b456" stroke-width="2" stroke-dasharray="5,2" d="M135,-468C135,-468 73,-468 73,-468 67,-468 61,-462 61,-456 61,-456 61,-444 61,-444 61,-438 67,-432 73,-432 73,-432 135,-432 135,-432 141,-432 147,-438 147,-444 147,-444 147,-456 147,-456 147,-462 141,-468 135,-468"/>
<text text-anchor="middle" x="104" y="-447.5" font-family="sans" font-size="10.00">merge_results</text>
</g>
<!-- 5&#45;&gt;4 -->
<g id="edge7" class="edge">
<title>5&#45;&gt;4</title>
<path fill="none" stroke="grey" stroke-width="2" d="M104,-431.7C104,-423.98 104,-414.71 104,-406.11"/>
<polygon fill="grey" stroke="grey" stroke-width="2" points="107.5,-406.1 104,-396.1 100.5,-406.1 107.5,-406.1"/>
</g>
<!-- 6 -->
<g id="node7" class="node">
<title>6</title>
<path fill="none" stroke="#9fd856" stroke-width="2" stroke-dasharray="5,2" d="M163.5,-540C163.5,-540 80.5,-540 80.5,-540 74.5,-540 68.5,-534 68.5,-528 68.5,-528 68.5,-516 68.5,-516 68.5,-510 74.5,-504 80.5,-504 80.5,-504 163.5,-504 163.5,-504 169.5,-504 175.5,-510 175.5,-516 175.5,-516 175.5,-528 175.5,-528 175.5,-534 169.5,-540 163.5,-540"/>
<text text-anchor="middle" x="122" y="-519.5" font-family="sans" font-size="10.00">remove_contig630</text>
</g>
<!-- 6&#45;&gt;5 -->
<g id="edge8" class="edge">
<title>6&#45;&gt;5</title>
<path fill="none" stroke="grey" stroke-width="2" d="M117.55,-503.7C115.55,-495.9 113.13,-486.51 110.9,-477.83"/>
<polygon fill="grey" stroke="grey" stroke-width="2" points="114.28,-476.92 108.4,-468.1 107.5,-478.66 114.28,-476.92"/>
</g>
<!-- 7 -->
<g id="node8" class="node">
<title>7</title>
<path fill="none" stroke="#56b1d8" stroke-width="2" stroke-dasharray="5,2" d="M167.5,-612C167.5,-612 78.5,-612 78.5,-612 72.5,-612 66.5,-606 66.5,-600 66.5,-600 66.5,-588 66.5,-588 66.5,-582 72.5,-576 78.5,-576 78.5,-576 167.5,-576 167.5,-576 173.5,-576 179.5,-582 179.5,-588 179.5,-588 179.5,-600 179.5,-600 179.5,-606 173.5,-612 167.5,-612"/>
<text text-anchor="middle" x="123" y="-591.5" font-family="sans" font-size="10.00">remap_vars_docker</text>
</g>
<!-- 7&#45;&gt;6 -->
<g id="edge10" class="edge">
<title>7&#45;&gt;6</title>
<path fill="none" stroke="grey" stroke-width="2" d="M122.75,-575.7C122.64,-567.98 122.51,-558.71 122.39,-550.11"/>
<polygon fill="grey" stroke="grey" stroke-width="2" points="125.89,-550.05 122.24,-540.1 118.89,-550.15 125.89,-550.05"/>
</g>
<!-- 8 -->
<g id="node9" class="node">
<title>8</title>
<path fill="none" stroke="#56d8c9" stroke-width="2" stroke-dasharray="5,2" d="M103,-684C103,-684 57,-684 57,-684 51,-684 45,-678 45,-672 45,-672 45,-660 45,-660 45,-654 51,-648 57,-648 57,-648 103,-648 103,-648 109,-648 115,-654 115,-660 115,-660 115,-672 115,-672 115,-678 109,-684 103,-684"/>
<text text-anchor="middle" x="80" y="-663.5" font-family="sans" font-size="10.00">get_coords</text>
</g>
<!-- 8&#45;&gt;3 -->
<g id="edge6" class="edge">
<title>8&#45;&gt;3</title>
<path fill="none" stroke="grey" stroke-width="2" d="M62.64,-647.93C39.11,-622.89 0,-573.65 0,-523 0,-523 0,-523 0,-449 0,-406.33 10.29,-394.06 36,-360 44.55,-348.67 56.1,-338.46 67.25,-330.1"/>
<polygon fill="grey" stroke="grey" stroke-width="2" points="69.56,-332.75 75.64,-324.08 65.47,-327.06 69.56,-332.75"/>
</g>
<!-- 8&#45;&gt;5 -->
<g id="edge9" class="edge">
<title>8&#45;&gt;5</title>
<path fill="none" stroke="grey" stroke-width="2" d="M70.87,-647.88C65.99,-637.76 60.49,-624.51 58,-612 54.33,-593.58 55.77,-515.24 60,-504 63.9,-493.65 70.72,-483.87 77.84,-475.59"/>
<polygon fill="grey" stroke="grey" stroke-width="2" points="80.5,-477.87 84.68,-468.14 75.34,-473.14 80.5,-477.87"/>
</g>
<!-- 8&#45;&gt;7 -->
<g id="edge11" class="edge">
<title>8&#45;&gt;7</title>
<path fill="none" stroke="grey" stroke-width="2" d="M90.63,-647.7C95.63,-639.56 101.69,-629.69 107.21,-620.7"/>
<polygon fill="grey" stroke="grey" stroke-width="2" points="110.24,-622.46 112.49,-612.1 104.28,-618.79 110.24,-622.46"/>
</g>
<!-- 8&#45;&gt;9 -->
<g id="edge13" class="edge">
<title>8&#45;&gt;9</title>
<path fill="none" stroke="grey" stroke-width="2" d="M115.15,-656.67C139.5,-649.07 170.71,-635.36 189,-612 213.93,-580.15 208,-563.45 208,-523 208,-523 208,-523 208,-233 208,-191.97 194.77,-145.97 185.06,-117.74"/>
<polygon fill="grey" stroke="grey" stroke-width="2" points="188.32,-116.45 181.68,-108.19 181.72,-118.78 188.32,-116.45"/>
</g>
<!-- 9&#45;&gt;0 -->
<g id="edge2" class="edge">
<title>9&#45;&gt;0</title>
<path fill="none" stroke="grey" stroke-width="2" d="M168.08,-71.7C164.93,-63.81 161.12,-54.3 157.62,-45.55"/>
<polygon fill="grey" stroke="grey" stroke-width="2" points="160.81,-44.09 153.84,-36.1 154.31,-46.69 160.81,-44.09"/>
</g>
</g>
</svg>
